<?xml version="1.0" standalone="no"?>
<!DOCTYPE svg PUBLIC "-//W3C//DTD SVG 1.1//EN" "http://www.w3.org/Graphics/SVG/1.1/DTD/svg11.dtd" >
<svg xmlns="http://www.w3.org/2000/svg">
<metadata>Generated by IcoMoon</metadata>
<defs>
<font id="ipmf-svg-icons" horiz-adv-x="1024">
<font-face units-per-em="1024" ascent="960" descent="-64" />
<missing-glyph horiz-adv-x="1024" />
<glyph unicode="&#x20;" horiz-adv-x="512" d="" />
<glyph unicode="&#xe900;" glyph-name="actions-icon" d="M512-33.882c-265.728 0-481.882 216.184-481.882 481.882 0 265.728 216.154 481.882 481.882 481.882 265.698 0 481.882-216.154 481.882-481.882 0-265.698-216.184-481.882-481.882-481.882zM512 892.808c-245.278 0-444.808-199.529-444.808-444.808 0-245.308 199.529-444.838 444.808-444.838 245.308 0 444.838 199.529 444.838 444.838 0 245.278-199.529 444.808-444.838 444.808zM379.181 448c0-35.829-29.045-64.873-64.873-64.873s-64.873 29.045-64.873 64.873c0 35.829 29.045 64.873 64.873 64.873s64.873-29.045 64.873-64.873zM576.873 448c0-35.829-29.045-64.873-64.873-64.873s-64.873 29.045-64.873 64.873c0 35.829 29.045 64.873 64.873 64.873s64.873-29.045 64.873-64.873zM759.115 448c0-35.829-29.045-64.873-64.873-64.873s-64.873 29.045-64.873 64.873c0 35.829 29.045 64.873 64.873 64.873s64.873-29.045 64.873-64.873z" />
<glyph unicode="&#xe901;" glyph-name="activitytracking-icon" d="M537.389-2.711h-496.941v904.222h729.118v-484.382h-30.118v454.264h-668.883v-843.987h466.824zM375.507 688.188h267.294v-30.118h-267.294v30.118zM375.507 477.365h267.294v-30.118h-267.294v30.118zM375.507 266.541h210.824v-30.118h-210.824v30.118zM333.041 730.263l-92.642-92.612-44.092 44.062c-4.156 4.186-10.963 4.186-15.209 0-4.186-4.247-4.186-11.023 0-15.24l59.302-59.272 107.821 107.881c4.247 4.186 4.247 10.993 0 15.179-4.186 4.216-11.023 4.216-15.179 0zM321.205 522.27l-92.642-92.612-44.062 44.032c-4.186 4.186-10.993 4.186-15.209 0-4.216-4.216-4.216-10.993 0-15.24l59.272-59.272 107.851 107.881c4.216 4.216 4.216 11.023 0 15.209s-11.023 4.156-15.209 0zM321.205 296.96l-92.642-92.612-44.062 44.062c-4.186 4.186-10.993 4.186-15.209 0-4.216-4.247-4.216-11.023 0-15.24l59.272-59.302 107.851 107.881c4.216 4.216 4.216 11.023 0 15.209s-11.023 4.186-15.209 0zM569.675-5.512l19.095 222.148 195.403 203.836 199.379-191.127-191.97-200.192-221.907-34.665zM617.894 203.475l-14.908-173.267 173.899 27.106 164.081 171.159-155.919 149.414-167.153-174.411zM617.054 224.355l177.61-170.253-20.841-21.742-177.61 170.253 20.841 21.742zM774.174 105.683c-3.765 0-7.499 1.385-10.421 4.186-5.993 5.752-6.204 15.3-0.482 21.293l110.923 115.682c5.783 6.024 15.33 6.234 21.293 0.482 5.993-5.752 6.204-15.3 0.482-21.293l-110.923-115.682c-2.952-3.102-6.897-4.668-10.872-4.668zM729.329 148.691c-3.765 0-7.499 1.385-10.421 4.186-5.993 5.752-6.204 15.3-0.482 21.293l110.923 115.682c5.783 6.024 15.3 6.204 21.293 0.482 5.993-5.752 6.204-15.3 0.482-21.293l-110.923-115.682c-2.952-3.132-6.897-4.668-10.872-4.668zM684.514 191.639c-3.735 0-7.499 1.385-10.421 4.186-5.993 5.752-6.204 15.3-0.482 21.293l110.893 115.682c5.752 5.993 15.27 6.204 21.293 0.452 5.993-5.722 6.204-15.27 0.482-21.293l-110.893-115.652c-2.982-3.102-6.927-4.668-10.872-4.668z" />
<glyph unicode="&#xe902;" glyph-name="add-icon" d="M351.142 933.978h318.374v-971.927h-318.374v971.927zM27.708 612.232h968.584v-326.807h-968.584v326.807z" />
<glyph unicode="&#xe903;" glyph-name="agency-icon" d="M997.647 40.087h-971.294v815.827l153.088-1.566v-478.328l273.559 156.883v-141.643l267.595 140.559v-140.951l277.052 140.559v-491.339zM181.941 70.204h785.589v412.19l-277.052-140.559v140.137l-267.595-140.559v139.505l-273.559-156.883v500.495l-92.853 0.964v-755.29h95.352v210.824h30.118v-210.824zM269.764 397.673h-30.118v282.413h95.413v-243.501h-30.118v213.384h-35.177zM41.412 795.528h122.97v-30.118h-122.97v30.118zM449.596 166.792h-178.236l1.084 118.302h178.146l-0.994-118.302zM301.779 196.909h117.941l0.542 58.067h-117.971l-0.512-58.067zM663.823 166.792h-183.627v118.302h183.627v-118.302zM510.313 196.909h123.392v58.067h-123.392v-58.067zM874.647 166.792h-184.952v118.302h184.952v-118.302zM719.812 196.909h124.717v58.067h-124.717v-58.067z" />
<glyph unicode="&#xe904;" glyph-name="backward-arrow-icon" d="M959.368 482.997h-792.305l332.589 335.842c16.474 16.565 16.474 43.4 0 59.964-16.535 16.535-43.43 16.535-59.994 0l-404.932-408.245c-16.565-16.504-16.565-43.369 0-59.934l391.891-393.517c8.282-8.252 19.215-12.318 30.057-12.318 10.812 0 21.655 4.066 30.057 12.318 16.474 16.565 16.474 43.339 0 59.904l-319.669 321.235h792.305c23.432 0 42.285 18.914 42.285 42.376 0.030 23.371-18.824 42.376-42.285 42.376z" />
<glyph unicode="&#xe905;" glyph-name="centralfile-icon" d="M995.78-35.78h-967.529v660.088h451.373l73.035-118.573h443.121v-541.515zM58.368-5.662h907.294v481.28h-429.839l-73.035 118.573h-404.42v-599.853zM693.941 537.419h-30.118v364.213h-543.985v-239.044h-30.118v269.161h604.22zM812.544 537.419h-30.118v299.279h-57.103v30.118h87.221zM930.786 537.419h-30.118v270.095h-57.073v30.118h87.191zM210.191 837.632h360.177v-30.118h-360.177v30.118zM210.191 717.161h360.177v-30.118h-360.177v30.118z" />
<glyph unicode="&#xe906;" glyph-name="createnewdocument-icon" d="M719.179 621.086v-154.202h82.492v154.202h1.747l-167.424 167.334-157.545 147.848v1.717h-278.528v-1.717h-41.231v-808.056h6.837v-6.024h312.922v82.522h-237.237v650.752h237.237v-234.376zM971.023 205.583h-169.352v165.075h-82.492v-165.075h-155.618v-82.492h155.618v-165.075h82.492v165.075h169.352z" />
<glyph unicode="&#xe907;" glyph-name="cross-thick-icon" d="M756.187 897.888l217.895-232.126-708.632-665.187-217.895 232.126 708.632 665.187zM963.194 207.325l-238.275-223.699-662.995 706.194 238.275 223.699 662.995-706.194z" />
<glyph unicode="&#xe908;" glyph-name="cross-thin-icon" d="M980.691 62.012l-385.837 385.867 385.928 386.018c22.829 22.889 22.829 59.904 0 82.763-23.010 22.889-59.994 22.95-82.884 0l-385.897-385.928-385.958 385.958c-22.829 22.829-59.904 22.829-82.733 0-22.95-22.889-22.95-59.874-0.12-82.733l385.958-386.078-385.958-385.867c-22.829-22.859-22.829-59.994 0-82.613 22.95-23.040 60.024-23.040 82.854-0.211l385.958 385.897 385.837-385.717c22.98-23.040 59.964-22.829 82.974 0 22.799 22.618 22.799 59.784-0.12 82.643z" />
<glyph unicode="&#xe909;" glyph-name="doublearrowleft-icon" d="M382.856 448l478.088-478.118 111.496 111.586-366.532 366.532 366.532 366.532-111.496 111.586zM51.561 448l478.088-478.118 111.496 111.586-366.532 366.532 366.532 366.532-111.496 111.586z" />
<glyph unicode="&#xe90a;" glyph-name="doublearrowright-icon" d="M163.057 926.118l-111.496-111.586 366.532-366.532-366.532-366.532 111.496-111.586 478.088 478.118zM494.351 926.118l-111.496-111.586 366.532-366.532-366.532-366.532 111.496-111.586 478.088 478.118z" />
<glyph unicode="&#xe90b;" glyph-name="downarrow-icon" d="M990.088 594.492l-111.586 111.496-366.502-366.532-366.532 366.532-111.586-111.496 478.118-478.088z" />
<glyph unicode="&#xe90c;" glyph-name="dropdown-icon" d="M512 932.412c-267.565 0-484.412-216.877-484.412-484.412 0-267.565 216.847-484.412 484.412-484.412s484.412 216.847 484.412 484.412c0 267.535-216.847 484.412-484.412 484.412zM512 278.769l-215.944 245.097h431.887l-215.944-245.097z" />
<glyph unicode="&#xe90d;" glyph-name="export-icon" d="M625.423 644.367l302.532-0.452-158.961 155.136-143.571 140.499h-529.378v-983.13h831.91v687.496zM845.463 38.942h-666.895v818.116h364.303v-295.635h302.622l-0.030-522.481zM548.864 351.985l121.073-179.652c20.058-29.756 34.364-47.857 42.888-54.212 8.523-6.385 18.613-10.21 30.268-11.505v-11.957h-213.956v11.957c17.047 1.295 28.070 3.885 33.039 7.77s7.439 8.644 7.439 14.276c0 3.885-0.753 7.319-2.259 10.36-3.042 6.475-10.601 18.552-22.648 36.232l-64.090 94.84-67.042-81.89c-20.058-24.817-30.088-41.683-30.088-50.507 0-6.264 2.59-12.077 7.77-17.498 5.18-5.391 12.83-9.276 22.98-11.656 4.548-1.295 13.824-1.928 27.859-1.928v-11.957h-168.659v11.957c19.215 2.801 34.334 8.011 45.327 15.541 14.426 9.939 34.605 30.66 60.536 62.163l87.070 106.135-111.676 164.111c-18.312 26.985-28.792 41.984-31.383 44.996-5.813 7.108-11.565 12.168-17.137 15.209-5.632 3.012-13.372 5.301-23.311 6.807v11.987h217.841v-11.987h-10.993c-12.529 0-21.263-1.988-26.232-5.993s-7.439-9.005-7.439-15.059c0-4.759 0.753-8.855 2.259-12.318l22.347-33.672 54.362-82.854 46.291 56.651c23.733 29.124 35.629 49.513 35.629 61.169 0 5.813-1.687 11.234-5.030 16.203s-8.162 8.824-14.396 11.656c-6.264 2.801-15.992 4.216-29.154 4.216v11.987h161.521v-11.987c-12.74-0.211-23.010-1.777-30.75-4.698s-16.053-8.373-24.907-16.324c-5.632-5.18-19.637-21.263-42.074-48.248l-83.275-100.322z" />
<glyph unicode="&#xe90e;" glyph-name="fiscal-icon" d="M783.059-20.088h-660.088v813.176h660.088v-813.176zM153.088 10.029h599.853v752.941h-599.853v-752.941zM685.176 645.030h-471.853c-8.312 0-15.059 6.746-15.059 15.059s6.746 15.059 15.059 15.059h471.853c8.282 0 15.059-6.746 15.059-15.059s-6.776-15.059-15.059-15.059zM685.176 524.559h-471.853c-8.312 0-15.059 6.746-15.059 15.059s6.746 15.059 15.059 15.059h471.853c8.282 0 15.059-6.746 15.059-15.059s-6.776-15.059-15.059-15.059zM328.764 70.264h-115.441v245.971h115.411v-245.971zM243.441 100.382h55.176v185.736h-55.176v-185.736zM691.471 70.264h-115.471v245.971h115.471v-245.971zM606.118 100.382h55.236v185.736h-55.236v-185.736zM506.97 70.264h-115.441v331.324h115.441v-331.324zM421.647 100.382h55.206v271.089h-55.206v-271.089zM901 104.779h-82.763v30.118h52.646v751.074h-602.323v-68.367h-30.118v98.485h662.558z" />
<glyph unicode="&#xe90f;" glyph-name="forward-arrow-icon" d="M64.602 413.003h792.305l-332.589-335.812c-16.474-16.565-16.474-43.4 0-59.964 16.535-16.535 43.43-16.535 59.994 0l404.932 408.245c16.565 16.504 16.565 43.369 0 59.934l-391.921 393.487c-8.252 8.252-19.215 12.318-30.057 12.318-10.782 0-21.655-4.066-30.057-12.318-16.474-16.565-16.474-43.309 0-59.874l319.669-321.235h-792.275c-23.432 0-42.285-18.944-42.285-42.376-0.060-23.401 18.793-42.406 42.285-42.406z" />
<glyph unicode="&#xe910;" glyph-name="help-icon" d="M512 942.411c-273.047 0-494.411-221.365-494.411-494.411 0-273.016 221.365-494.411 494.411-494.411 273.016 0 494.411 221.395 494.411 494.411 0 273.047-221.395 494.411-494.411 494.411zM499.561 62.374l-3.494 0.030c-53.911 1.626-91.859 41.291-90.323 94.389 1.476 52.164 40.388 89.992 92.491 89.992l3.132-0.030c55.356-1.626 92.913-40.87 91.287-95.563-1.476-52.284-39.755-88.817-93.094-88.817zM726.167 512.151c-12.68-18.010-40.568-40.328-75.656-67.704l-38.641-26.654c-21.203-16.565-34.063-32.045-38.822-47.285-3.795-12.047-5.662-15.24-5.993-39.665l-0.060-6.234h-147.576l0.422 12.529c1.807 51.32 3.102 81.528 24.335 106.466 33.4 39.183 107.008 86.618 110.17 88.636 10.541 7.921 19.456 16.986 26.052 26.684 15.511 21.353 22.347 38.159 22.347 54.694 0 22.95-6.837 44.152-20.269 63.036-12.981 18.191-37.466 27.467-73.005 27.467-35.238 0-59.392-11.204-73.818-34.153-14.788-23.582-22.347-48.339-22.347-73.668v-6.295h-152.215l0.271 6.566c3.945 93.214 37.225 160.346 98.876 199.529 38.761 24.968 86.95 37.587 143.149 37.587 73.668 0 135.861-17.89 184.802-53.158 49.574-35.78 74.692-89.329 74.692-159.172 0-39.123-12.378-75.836-36.713-109.207z" />
<glyph unicode="&#xe911;" glyph-name="import-icon" d="M901.572 84.691h-877.176v726.588h877.176v-363.279h-30.118v333.161h-816.941v-666.353h816.941v188.085h30.118zM39.454 628.073h847.059v-30.118h-847.059v30.118zM976.143 395.565h-438.814l104.719 104.719c9.186 9.186 9.186 24.034 0 33.22-9.186 9.156-24.064 9.156-33.22 0l-144.806-144.806c-9.186-9.186-9.186-24.064 0-33.25l144.806-144.776c4.578-4.578 10.601-6.897 16.625-6.897 5.993 0 11.987 2.289 16.595 6.897 9.186 9.156 9.186 24.034 0 33.19l-104.719 104.749h438.814c12.951 0 23.462 10.511 23.462 23.462s-10.511 23.492-23.462 23.492zM724.631 659.456h-95.352v90.353h95.352v-90.353zM659.396 689.574h35.117v30.118h-35.117v-30.118zM846.366 659.456h-95.383v90.353h95.383v-90.353zM781.101 689.574h35.147v30.118h-35.147v-30.118z" />
<glyph unicode="&#xe912;" glyph-name="leftarrow-icon" d="M217.208 448l478.088-478.118 111.496 111.586-366.532 366.532 366.532 366.532-111.496 111.586z" />
<glyph unicode="&#xe913;" glyph-name="lock-icon" d="M131.765 492.875h760.471v-506.94h-760.471v506.94zM818.266 492.875h-126.705v105.623c0 101.918-82.944 184.832-184.832 184.832s-184.832-82.914-184.832-184.832v-105.623h-126.765v105.623c0 171.791 139.776 311.567 311.567 311.567s311.537-139.776 311.537-311.567v-105.623z" />
<glyph unicode="&#xe914;" glyph-name="map-icon" d="M826.127 688.068c-18.191 61.109-52.465 118.001-100.442 158.419-39.544 33.34-89.329 58.368-139.716 70.264-25.419 5.993-52.314 8.824-78.426 8.824-144.354 0-303.345-96.768-324.608-296.297v-40.779c0-1.717 0.632-16.986 1.416-24.666 11.866-95.081 86.95-196.156 142.999-291.238 60.265-101.888 122.88-202.089 184.802-302.261-1.144 1.867 12.499 21.384 14.035 24.064 4.668 8.041 9.367 16.053 14.035 24.094 9.517 16.384 19.004 32.738 28.552 49.122 28.552 49.122 56.26 98.876 86.618 146.944 8.312 13.161 16.866 26.142 25.51 39.093 7.62 11.354 14.938 22.889 22.076 34.515 14.878 24.275 29.545 48.64 44.785 72.704 29.214 46.11 59.392 93.124 77.975 144.745 9.156 25.389 15.36 54.031 15.36 81.167 0 33.732-5.12 68.126-14.968 101.286zM508.024 427.159c-97.672 0-175.315 82.191-171.159 179.471 3.102 72.824 41.532 143.119 113.724 165.737 19.275 6.024 42.496 11.475 62.765 11.475 99.177 0 175.767-79.3 175.767-178.357 0.030-99.027-81.89-178.327-181.097-178.327z" />
<glyph unicode="&#xe915;" glyph-name="myworkspace-icon" d="M993.4 197.030h-962.801v658.824h962.831v-658.824zM60.717 227.147h902.596v598.588h-902.596v-598.588zM483.599 198.897h58.97v-127.368h-58.97v127.368zM301.658 71.529h422.912v-31.383h-422.912v31.383zM450.349 588.559h-269.161v120.471h269.192v-120.471zM211.305 618.677h208.956v60.235h-208.956v-60.235zM841.879 588.559h-269.192v120.471h269.192v-120.471zM602.835 618.677h208.956v60.235h-208.956v-60.235zM450.349 347.618h-269.161v120.471h269.192v-120.471zM211.305 377.736h208.956v60.235h-208.956v-60.235zM841.879 347.618h-269.192v120.471h269.192v-120.471zM602.835 377.736h208.956v60.235h-208.956v-60.235z" />
<glyph unicode="&#xe916;" glyph-name="openmasterfile-icon" d="M632.531 541.545h-575.307v-575.428h909.613v496.098h-334.306zM854.347 511.428h-30.118v387.102h-627.923v-304.459h-30.118v334.577h688.158zM289.882 848.173h421.647v-65.114h-421.647v65.114zM289.882 667.467h421.647v-65.114h-421.647v65.114z" />
<glyph unicode="&#xe917;" glyph-name="reports-icon" d="M942.17 9.397h-875.4v877.176h30.118v-847.059h845.282zM222.389 85.956c-44.303 0-80.324 36.021-80.324 80.294 0 44.303 36.021 80.324 80.324 80.324 44.273 0 80.294-36.021 80.294-80.324 0-44.243-36.021-80.294-80.294-80.294zM222.389 216.456c-27.678 0-50.206-22.528-50.206-50.206s22.528-50.176 50.206-50.176 50.176 22.498 50.176 50.176-22.498 50.206-50.176 50.206zM436.977 364.544c-44.303 0-80.324 36.021-80.324 80.294 0 44.303 36.021 80.324 80.324 80.324 44.273 0 80.294-36.021 80.294-80.324 0-44.243-36.021-80.294-80.294-80.294zM436.977 495.044c-27.678 0-50.206-22.528-50.206-50.206s22.528-50.176 50.206-50.176 50.176 22.498 50.176 50.176-22.498 50.206-50.176 50.206zM654.728 216.456c-44.273 0-80.294 36.021-80.294 80.294 0 44.303 36.021 80.324 80.294 80.324 44.303 0 80.324-36.021 80.324-80.324 0-44.243-36.021-80.294-80.324-80.294zM654.728 346.985c-27.678 0-50.176-22.528-50.176-50.206s22.498-50.176 50.176-50.176 50.206 22.498 50.206 50.176-22.528 50.206-50.206 50.206zM876.905 676.744c-44.273 0-80.294 36.021-80.294 80.324 0 44.273 36.021 80.294 80.294 80.294 44.303 0 80.324-36.021 80.324-80.294 0-44.303-36.021-80.324-80.324-80.324zM876.905 807.243c-27.678 0-50.176-22.498-50.176-50.176s22.498-50.206 50.176-50.206 50.206 22.528 50.206 50.206-22.528 50.176-50.206 50.176zM381.105 395.102l23.817-18.435-130.446-168.529-23.817 18.435 130.446 168.529zM510.607 412.184l87.294-58.976-16.86-24.955-87.294 58.976 16.86 24.955zM828.683 698.35l27.184-13.033-158.113-329.796-27.184 13.033 158.113 329.796z" />
<glyph unicode="&#xe918;" glyph-name="rightarrow-icon" d="M328.704 926.118l-111.496-111.586 366.532-366.532-366.532-366.532 111.496-111.586 478.088 478.118z" />
<glyph unicode="&#xe919;" glyph-name="selectAI-icon" d="M341.082 143.661h-315.061v761.585h765.048v-302.592h-30.118v272.474h-704.813v-701.35h284.943zM995.147 283.377l-306.808-50.568-26.925-269.764-333.764 640.602z" />
<glyph unicode="&#xe91a;" glyph-name="settings-icon" d="M871.665 406.347c-12.258 11.144-21.835 25.419-21.233 31.774 0 0 0 0 0.030 5.903 0.181 11.625 0.181 11.625 0.181 11.625-0.813 12.559 9.126 31.262 22.016 41.623l95.443 76.348c12.92 10.36 16.986 30.72 9.035 45.237l-83.064 151.703c-7.981 14.517-27.287 22.046-43.008 16.745l-128.843-43.671c-15.691-5.301-34.906-5.843-42.707-1.175-7.831 4.698-31.624 28.762-34.304 45.116l-19.697 120.621c-2.68 16.324-18.402 29.877-34.967 30.088l-172.966 1.988c-16.565 0.181-32.617-12.981-35.689-29.244l-25.058-133.271c-3.072-16.294-10.089-32.166-15.631-35.328s-32.226-7.168-47.616-1.084l-114.146 45.297c-15.39 6.084-35.087-0.452-43.761-14.547l-90.654-147.305c-8.674-14.095-5.662-34.635 6.746-45.628l97.822-86.829c12.408-10.993 21.986-26.022 21.353-33.431 0 0 0 0-0.090-6.897-0.151-12.92-0.151-12.92-0.151-12.92 1.084-13.884-8.523-33.822-21.323-44.333l-94.63-77.432c-12.83-10.511-16.685-30.901-8.553-45.357l84.691-150.739c8.132-14.426 27.558-21.775 43.159-16.294l128.452 45.116c15.631 5.481 34.334 6.475 41.562 2.229 7.228-4.277 29.395-27.528 32.045-43.881l19.757-120.591c2.68-16.354 18.432-29.877 34.997-30.088l172.966-1.988c16.565-0.211 32.617 12.981 35.689 29.244l25.028 133.391c3.072 16.264 10.3 32.286 16.083 35.659 5.783 3.313 33.099 7.62 48.399 1.325l113.182-46.502c15.33-6.295 35.087 0 43.942 14.005l92.491 146.191c8.855 14.005 6.054 34.545-6.204 45.719l-100.774 91.588zM510.404 314.067c-73.939 0.843-133.21 61.53-132.367 135.499 0.904 73.999 61.591 133.24 135.529 132.397 73.939-0.904 133.21-61.53 132.367-135.529-0.873-73.939-61.53-133.24-135.529-132.367z" />
<glyph unicode="&#xe91b;" glyph-name="stickynotes-icon" d="M905.608 238.472l-165.015 228.563h-50.839v314.278h82.552v146.071h-530.131v-146.071h76.168v-314.278h-53.911l-146.071-228.563h352.376v-269.854h63.458v269.854z" />
<glyph unicode="&#xe91c;" glyph-name="tools-icon" d="M173.779-14.216c-26.413 0-51.351 10.089-70.234 28.401-19.336 18.733-30.238 43.851-30.66 70.776s9.698 52.344 28.401 71.71l305.212 309.73 144.776-140.198-305.212-309.85c-18.703-19.275-43.851-30.148-70.746-30.569h-1.536zM406.95 427.128l-285.666-289.943c-13.493-13.914-20.781-32.316-20.48-51.802 0.301-19.426 8.162-37.587 22.136-51.14 13.673-13.252 31.714-20.54 50.839-20.54v-13.944l1.084 13.944c19.486 0.271 37.647 8.162 51.23 22.106l285.576 289.882-104.719 101.436zM557.719 396.288l-80.956 81.137 239.014 248.109 65.416 126.193 138.632 71.8 75.053-75.023-71.74-138.692-126.133-65.205-239.285-248.32zM515.795 477.786l41.532-41.623 224.768 232.207 120.26 62.163 58.278 112.67-46.17 46.2-112.61-58.338-64.632-123.392-221.425-229.888zM808.779-27.558c-98.033 0-179.893 76.89-186.368 175.014l-1.175 11.174c-0.090 19.757 3.042 38.912 9.126 58.097l-57.826 61.771 20.39 19.064 69.421-74.15-2.952-8.072c-6.927-19.064-10.33-37.135-10.33-55.236l1.144-10.3c5.602-84.028 75.234-149.444 158.6-149.444 16.926 0 33.581 2.801 49.784 8.312l-100.593 100.623c-6.927 6.897-12.408 15.541-16.294 25.6-9.848 26.594-3.403 56.32 16.324 75.987 18.884 19.064 47.767 26.775 75.866 16.203 10.481-3.945 18.974-9.306 25.811-16.354l100.442-100.412c5.572 16.294 8.343 32.949 8.343 49.754-0.060 83.245-65.506 152.907-149.022 158.6l-12.137 1.205c-16.565-0.090-35.117-3.584-53.76-10.541l-8.614-3.132-82.974 86.98 20.209 19.245 70.445-73.818c18.854 6.024 37.677 9.126 56.079 9.126l13.071-1.235c97.702-6.656 174.592-88.516 174.652-186.368 0-27.497-6.295-54.573-18.733-80.474l-8.523-17.769-129.295 129.295c-4.066 4.156-9.216 7.349-15.812 9.788-18.342 7.017-34.816 1.837-46.261-9.728-12.077-12.047-15.962-30.268-9.999-46.441 2.44-6.204 5.783-11.595 9.939-15.752l129.295-129.265-17.679-8.523c-25.781-12.529-52.917-18.824-80.595-18.824zM331.324 486.49l-60.326 67.674c-18.824-5.963-37.527-9.005-55.778-9.005l-13.071 1.235c-97.702 6.626-174.562 88.486-174.562 186.398 0 27.317 6.295 54.392 18.733 80.444l8.493 17.83 129.355-129.295c4.126-4.156 9.306-7.379 15.932-9.909 18.643-7.017 34.605-1.777 46.17 9.848 11.927 11.987 15.812 30.148 9.848 46.291-2.289 6.325-5.632 11.625-9.848 15.842l-129.295 129.325 17.8 8.523c25.992 12.408 53.037 18.733 80.444 18.733 97.882 0 179.802-76.86 186.428-174.984l1.144-11.234c0.060-19.878-3.102-39.093-9.306-58.217l69.752-77.252-20.721-18.703-80.926 89.63 2.952 7.921c6.927 18.703 10.451 37.286 10.451 55.206l-1.114 10.27c-5.692 84.028-75.324 149.444-158.63 149.444-16.776 0-33.431-2.801-49.754-8.373l100.533-100.563c7.138-7.108 12.619-15.842 16.294-25.901 9.668-26.263 3.313-55.959-16.294-75.656-19.245-19.305-46.984-27.106-75.806-16.233-10.481 4.006-18.914 9.336-25.841 16.324l-100.503 100.442c-5.572-16.384-8.373-33.039-8.373-49.754 0-83.275 65.446-152.937 148.992-158.6l12.107-1.205c16.535 0.060 35.117 3.554 53.85 10.451l8.915 3.283 72.794-81.679-20.841-18.552zM556.243 303.736c-14.155 0-27.528 5.451-37.647 15.33l-119.959 117.188c-10.3 10.059-16.083 23.522-16.233 37.948s5.301 28.009 15.36 38.31c20.119 20.631 55.657 21.022 76.228 0.873l119.959-117.188c10.3-10.059 16.053-23.522 16.233-37.978 0.151-14.396-5.301-27.979-15.39-38.28-10.21-10.481-23.913-16.203-38.551-16.203zM436.314 500.856c-7.048 0-13.673-2.801-18.613-7.831-4.849-5-7.499-11.565-7.409-18.492 0.090-6.957 2.861-13.463 7.861-18.281l119.928-117.218c9.909-9.668 27.076-9.487 36.774 0.452 4.849 5 7.499 11.565 7.409 18.492s-2.861 13.432-7.861 18.281l-119.928 117.218c-4.879 4.728-11.324 7.379-18.161 7.379z" />
<glyph unicode="&#xe91d;" d="M1001.833 448c0-270.528-219.306-489.833-489.833-489.833s-489.833 219.306-489.833 489.833c0 270.528 219.306 489.833 489.833 489.833s489.833-219.306 489.833-489.833z" />
<glyph unicode="&#xe91e;" d="M512-16.053c120.26 0 230.219 43.46 315.452 115.411-2.349 62.584-21.474 142.426-99.087 171.791-90.624 29.576-128.331 66.409-128.331 66.409l-3.042-2.861c-26.955-25.359-56.651-40.267-83.817-40.267h-2.56c-27.106 0-56.892 14.908-83.787 40.267l-3.072 2.861c0 0-37.677-36.834-128.301-66.409-77.372-28.913-96.467-108.996-98.906-171.821 85.263-71.921 195.223-115.381 315.452-115.381z" />
<glyph unicode="&#xe91f;" d="M652.439 530.643l-1.114 1.235c-7.499 6.897-6.927 6.475-6.927 6.475s13.161 66.259 2.62 97.611c-16.565 50.056-115.29 83.576-135.108 87.462l-12.83 2.44c0 0-15.571 3.162-33.611-4.698-11.776-4.518-73.216-32.407-90.684-85.203-10.541-31.322 2.62-97.611 2.62-97.611s0.572 0.392-6.957-6.475l-1.114-1.235c-5.090-5.783-3.855-23.853 1.747-42.677 5.030-18.884 11.625-23.944 13.161-28.371 15.992-74.993 71.529-139.053 128.12-139.053 56.621 0 109.176 64.060 125.229 139.053 1.506 4.397 8.132 9.457 13.161 28.371 5.512 18.824 6.957 38.159 1.687 42.677z" />
<glyph unicode="&#xe920;" glyph-name="calender-icon" d="M957.5 785.769c-14.216 14.216-31.021 21.323-50.477 21.323h-71.8v53.85c0 24.696-8.824 45.809-26.413 63.398-17.559 17.589-38.701 26.383-63.398 26.383h-35.9c-24.666 0-45.809-8.794-63.368-26.353-17.589-17.589-26.383-38.731-26.383-63.428v-53.85h-215.432v53.85c0 24.696-8.824 45.839-26.413 63.428-17.559 17.559-38.671 26.353-63.368 26.353h-35.96c-24.696 0-45.809-8.794-63.398-26.353-17.589-17.589-26.383-38.731-26.383-63.428v-53.85h-71.8c-19.456 0-36.292-7.108-50.507-21.323-14.246-14.216-21.323-31.051-21.323-50.507v-718.216c0-19.396 7.078-36.262 21.323-50.477 14.216-14.276 31.021-21.323 50.507-21.323h789.986c19.456 0 36.292 7.048 50.507 21.323 14.216 14.216 21.323 31.081 21.323 50.477v718.216c0 19.486-7.078 36.292-21.323 50.507zM278.588 17.047h-161.581v161.581h161.581v-161.581zM278.588 214.588h-161.581v179.531h161.581v-179.531zM278.588 430.050h-161.581v161.581h161.581v-161.581zM265.969 686.743c-3.584 3.554-5.331 7.77-5.331 12.619v161.581c0 4.879 1.747 9.096 5.331 12.619 3.554 3.584 7.74 5.331 12.619 5.331h35.9c4.849 0 9.065-1.777 12.619-5.331 3.554-3.524 5.331-7.74 5.331-12.619v-161.581c0-4.849-1.777-9.065-5.331-12.619s-7.74-5.331-12.619-5.331h-35.9c-4.849 0-9.065 1.777-12.619 5.331zM494.050 17.047h-179.592v161.581h179.592v-161.581zM494.050 214.588h-179.592v179.531h179.592v-179.531zM494.050 430.050h-179.592v161.581h179.592v-161.581zM709.512 17.047h-179.531v161.581h179.531v-161.581zM709.512 214.588h-179.531v179.531h179.531v-179.531zM709.512 430.050h-179.531v161.581h179.531v-161.581zM696.892 686.743c-3.554 3.554-5.301 7.77-5.301 12.619v161.581c0 4.879 1.747 9.096 5.301 12.619 3.524 3.584 7.77 5.331 12.619 5.331h35.9c4.879 0 9.096-1.777 12.619-5.331 3.554-3.524 5.361-7.74 5.361-12.619v-161.581c0-4.849-1.807-9.065-5.361-12.619-3.524-3.554-7.74-5.331-12.619-5.331h-35.9c-4.879 0-9.096 1.777-12.619 5.331zM906.993 17.047h-161.581v161.581h161.581v-161.581zM906.993 214.588h-161.581v179.531h161.581v-179.531zM906.993 430.050h-161.581v161.581h161.581v-161.581z" />
<glyph unicode="&#xe921;" glyph-name="hamburger-icon" d="M947.561 690.025h-873.080c-31.804 0-57.555 26.504-57.555 59.151s25.72 59.151 57.555 59.151h873.080c31.864 0 57.585-26.473 57.585-59.151 0-32.648-25.72-59.151-57.585-59.151zM947.561 388.849h-873.080c-31.804 0-57.555 26.504-57.555 59.151s25.72 59.151 57.555 59.151h873.080c31.864 0 57.585-26.473 57.585-59.151 0-32.648-25.72-59.151-57.585-59.151zM947.561 87.672h-873.080c-31.804 0-57.555 26.504-57.555 59.151s25.72 59.151 57.555 59.151h873.080c31.864 0 57.585-26.473 57.585-59.151 0-32.648-25.72-59.151-57.585-59.151z" />
<glyph unicode="&#xe922;" glyph-name="search-icon" d="M996.62-64c-8.214 0-13.69 2.738-19.166 8.214l-399.743 399.743c-10.952 10.952-10.952 27.38 0 38.332s27.38 10.952 38.332 0l399.743-399.743c10.952-10.952 10.952-27.38 0-38.332-5.476-5.476-13.69-8.214-19.166-8.214zM361.412 237.176c-199.872 0-361.412 161.54-361.412 361.412s161.54 361.412 361.412 361.412 361.412-161.54 361.412-361.412c0-199.872-161.54-361.412-361.412-361.412zM361.412 905.241c-169.754 0-306.652-136.898-306.652-306.652s136.898-306.652 306.652-306.652c169.754 0 306.652 136.898 306.652 306.652s-136.898 306.652-306.652 306.652z" />
</font>
</defs>
</svg>
